<mxfile host="app.diagrams.net" modified="2024-06-02T10:21:56.903Z" agent="Mozilla/5.0 (Macintosh; Intel Mac OS X 10_15_7) AppleWebKit/605.1.15 (KHTML, like Gecko) Version/17.5 Safari/605.1.15" etag="0EUfjQ9vNAkd9AYxta07" version="24.4.13" type="device">
  <diagram name="Page-1" id="jzmNe7Z45oCg1du9N0Ci">
    <mxGraphModel dx="1242" dy="1900" grid="1" gridSize="10" guides="1" tooltips="1" connect="1" arrows="1" fold="1" page="1" pageScale="1" pageWidth="827" pageHeight="1169" math="0" shadow="0">
      <root>
        <mxCell id="0" />
        <mxCell id="1" parent="0" />
        <mxCell id="o5grY7i1NChu_Qx1fXdT-12" style="edgeStyle=orthogonalEdgeStyle;rounded=0;orthogonalLoop=1;jettySize=auto;html=1;entryX=0;entryY=0.5;entryDx=0;entryDy=0;" edge="1" parent="1" source="o5grY7i1NChu_Qx1fXdT-21" target="o5grY7i1NChu_Qx1fXdT-11">
          <mxGeometry relative="1" as="geometry" />
        </mxCell>
        <mxCell id="o5grY7i1NChu_Qx1fXdT-1" value="Eventing Service" style="rounded=0;whiteSpace=wrap;html=1;" vertex="1" parent="1">
          <mxGeometry x="50" y="250" width="120" height="60" as="geometry" />
        </mxCell>
        <mxCell id="o5grY7i1NChu_Qx1fXdT-3" style="edgeStyle=orthogonalEdgeStyle;rounded=0;orthogonalLoop=1;jettySize=auto;html=1;entryX=0.5;entryY=1;entryDx=0;entryDy=0;" edge="1" parent="1" source="o5grY7i1NChu_Qx1fXdT-2" target="o5grY7i1NChu_Qx1fXdT-1">
          <mxGeometry relative="1" as="geometry">
            <Array as="points">
              <mxPoint x="110" y="330" />
              <mxPoint x="110" y="330" />
            </Array>
          </mxGeometry>
        </mxCell>
        <mxCell id="o5grY7i1NChu_Qx1fXdT-4" value="Orders Pizza" style="edgeLabel;html=1;align=center;verticalAlign=middle;resizable=0;points=[];" vertex="1" connectable="0" parent="o5grY7i1NChu_Qx1fXdT-3">
          <mxGeometry x="-0.2154" y="-2" relative="1" as="geometry">
            <mxPoint x="-2" y="-13" as="offset" />
          </mxGeometry>
        </mxCell>
        <mxCell id="o5grY7i1NChu_Qx1fXdT-2" value="User" style="shape=umlActor;verticalLabelPosition=bottom;verticalAlign=top;html=1;outlineConnect=0;" vertex="1" parent="1">
          <mxGeometry x="95" y="400" width="30" height="60" as="geometry" />
        </mxCell>
        <mxCell id="o5grY7i1NChu_Qx1fXdT-16" style="edgeStyle=orthogonalEdgeStyle;rounded=0;orthogonalLoop=1;jettySize=auto;html=1;entryX=0.5;entryY=0;entryDx=0;entryDy=0;entryPerimeter=0;" edge="1" parent="1" source="o5grY7i1NChu_Qx1fXdT-11" target="o5grY7i1NChu_Qx1fXdT-18">
          <mxGeometry relative="1" as="geometry">
            <mxPoint x="710" y="222" as="targetPoint" />
          </mxGeometry>
        </mxCell>
        <mxCell id="o5grY7i1NChu_Qx1fXdT-17" value="transforms and writes events" style="edgeLabel;html=1;align=center;verticalAlign=middle;resizable=0;points=[];" vertex="1" connectable="0" parent="o5grY7i1NChu_Qx1fXdT-16">
          <mxGeometry x="-0.0333" y="-2" relative="1" as="geometry">
            <mxPoint x="2" y="-2" as="offset" />
          </mxGeometry>
        </mxCell>
        <mxCell id="o5grY7i1NChu_Qx1fXdT-11" value="processing service" style="rounded=0;whiteSpace=wrap;html=1;fillColor=#dae8fc;strokeColor=#6c8ebf;" vertex="1" parent="1">
          <mxGeometry x="470" y="192" width="120" height="60" as="geometry" />
        </mxCell>
        <mxCell id="o5grY7i1NChu_Qx1fXdT-18" value="BigQuery" style="shape=cylinder3;whiteSpace=wrap;html=1;boundedLbl=1;backgroundOutline=1;size=15;" vertex="1" parent="1">
          <mxGeometry x="500" y="352" width="60" height="80" as="geometry" />
        </mxCell>
        <mxCell id="o5grY7i1NChu_Qx1fXdT-19" value="" style="edgeStyle=orthogonalEdgeStyle;rounded=0;orthogonalLoop=1;jettySize=auto;html=1;entryX=0;entryY=0.5;entryDx=0;entryDy=0;" edge="1" parent="1" source="o5grY7i1NChu_Qx1fXdT-1" target="o5grY7i1NChu_Qx1fXdT-21">
          <mxGeometry relative="1" as="geometry">
            <mxPoint x="200" y="280" as="sourcePoint" />
            <mxPoint x="440" y="280" as="targetPoint" />
          </mxGeometry>
        </mxCell>
        <mxCell id="o5grY7i1NChu_Qx1fXdT-20" value="sends event" style="edgeLabel;html=1;align=center;verticalAlign=middle;resizable=0;points=[];" vertex="1" connectable="0" parent="o5grY7i1NChu_Qx1fXdT-19">
          <mxGeometry x="-0.0333" y="-3" relative="1" as="geometry">
            <mxPoint y="-3" as="offset" />
          </mxGeometry>
        </mxCell>
        <mxCell id="o5grY7i1NChu_Qx1fXdT-21" value="" style="strokeColor=#dddddd;shadow=1;strokeWidth=1;rounded=1;absoluteArcSize=1;arcSize=2;" vertex="1" parent="1">
          <mxGeometry x="280" y="258" width="100" height="44" as="geometry" />
        </mxCell>
        <mxCell id="o5grY7i1NChu_Qx1fXdT-22" value="Pub/Sub" style="sketch=0;dashed=0;connectable=0;html=1;fillColor=#757575;strokeColor=none;shape=mxgraph.gcp2.task_queues;part=1;labelPosition=right;verticalLabelPosition=middle;align=left;verticalAlign=middle;spacingLeft=5;fontSize=12;" vertex="1" parent="o5grY7i1NChu_Qx1fXdT-21">
          <mxGeometry y="0.5" width="32" height="32" relative="1" as="geometry">
            <mxPoint x="5" y="-16" as="offset" />
          </mxGeometry>
        </mxCell>
        <mxCell id="o5grY7i1NChu_Qx1fXdT-23" value="Eventing Service" style="rounded=0;whiteSpace=wrap;html=1;" vertex="1" parent="1">
          <mxGeometry x="50" y="132" width="120" height="60" as="geometry" />
        </mxCell>
        <mxCell id="o5grY7i1NChu_Qx1fXdT-33" style="edgeStyle=orthogonalEdgeStyle;rounded=0;orthogonalLoop=1;jettySize=auto;html=1;entryX=0.5;entryY=0;entryDx=0;entryDy=0;" edge="1" parent="1" source="o5grY7i1NChu_Qx1fXdT-26" target="o5grY7i1NChu_Qx1fXdT-23">
          <mxGeometry relative="1" as="geometry" />
        </mxCell>
        <mxCell id="o5grY7i1NChu_Qx1fXdT-34" value="Locks Card" style="edgeLabel;html=1;align=center;verticalAlign=middle;resizable=0;points=[];" vertex="1" connectable="0" parent="o5grY7i1NChu_Qx1fXdT-33">
          <mxGeometry x="0.0667" y="-3" relative="1" as="geometry">
            <mxPoint x="3" as="offset" />
          </mxGeometry>
        </mxCell>
        <mxCell id="o5grY7i1NChu_Qx1fXdT-26" value="User" style="shape=umlActor;verticalLabelPosition=bottom;verticalAlign=top;html=1;outlineConnect=0;" vertex="1" parent="1">
          <mxGeometry x="95" y="-30" width="30" height="60" as="geometry" />
        </mxCell>
        <mxCell id="o5grY7i1NChu_Qx1fXdT-27" value="" style="edgeStyle=orthogonalEdgeStyle;rounded=0;orthogonalLoop=1;jettySize=auto;html=1;entryX=0;entryY=0.5;entryDx=0;entryDy=0;" edge="1" parent="1" source="o5grY7i1NChu_Qx1fXdT-23" target="o5grY7i1NChu_Qx1fXdT-29">
          <mxGeometry relative="1" as="geometry">
            <mxPoint x="200" y="162" as="sourcePoint" />
            <mxPoint x="440" y="162" as="targetPoint" />
          </mxGeometry>
        </mxCell>
        <mxCell id="o5grY7i1NChu_Qx1fXdT-28" value="sends event" style="edgeLabel;html=1;align=center;verticalAlign=middle;resizable=0;points=[];" vertex="1" connectable="0" parent="o5grY7i1NChu_Qx1fXdT-27">
          <mxGeometry x="-0.0333" y="-3" relative="1" as="geometry">
            <mxPoint y="-3" as="offset" />
          </mxGeometry>
        </mxCell>
        <mxCell id="o5grY7i1NChu_Qx1fXdT-35" style="edgeStyle=orthogonalEdgeStyle;rounded=0;orthogonalLoop=1;jettySize=auto;html=1;entryX=0;entryY=0.5;entryDx=0;entryDy=0;" edge="1" parent="1" source="o5grY7i1NChu_Qx1fXdT-29" target="o5grY7i1NChu_Qx1fXdT-11">
          <mxGeometry relative="1" as="geometry" />
        </mxCell>
        <mxCell id="o5grY7i1NChu_Qx1fXdT-29" value="" style="strokeColor=#dddddd;shadow=1;strokeWidth=1;rounded=1;absoluteArcSize=1;arcSize=2;" vertex="1" parent="1">
          <mxGeometry x="280" y="140" width="100" height="44" as="geometry" />
        </mxCell>
        <mxCell id="o5grY7i1NChu_Qx1fXdT-30" value="Pub/Sub" style="sketch=0;dashed=0;connectable=0;html=1;fillColor=#757575;strokeColor=none;shape=mxgraph.gcp2.task_queues;part=1;labelPosition=right;verticalLabelPosition=middle;align=left;verticalAlign=middle;spacingLeft=5;fontSize=12;" vertex="1" parent="o5grY7i1NChu_Qx1fXdT-29">
          <mxGeometry y="0.5" width="32" height="32" relative="1" as="geometry">
            <mxPoint x="5" y="-16" as="offset" />
          </mxGeometry>
        </mxCell>
      </root>
    </mxGraphModel>
  </diagram>
</mxfile>
